<svg id="svg" version="1.1" xmlns="http://www.w3.org/2000/svg" xmlns:xlink="http://www.w3.org/1999/xlink" width="400" height="400" viewBox="0, 0, 400,400"><g id="svgg"><path id="path0" d="M198.800 49.188 C 197.810 49.786,180.154 59.241,159.564 70.199 L 122.128 90.123 121.865 106.561 C 121.720 115.603,121.601 134.521,121.601 148.603 L 121.600 174.206 135.100 181.471 C 142.525 185.467,156.340 192.910,165.800 198.011 C 175.260 203.113,186.690 209.266,191.200 211.687 C 195.710 214.107,199.609 216.256,199.864 216.463 C 200.159 216.702,200.426 216.682,200.594 216.409 C 200.740 216.173,202.151 215.334,203.730 214.543 C 205.308 213.753,210.560 210.985,215.400 208.391 C 220.240 205.797,232.120 199.460,241.800 194.307 C 251.480 189.155,263.766 182.613,269.102 179.769 L 278.803 174.600 278.702 132.479 L 278.600 90.359 257.800 79.149 C 238.918 68.973,214.634 55.924,205.400 50.993 C 203.420 49.936,201.530 48.852,201.200 48.585 C 200.715 48.193,200.256 48.308,198.800 49.188 M226.600 82.703 C 240.460 90.177,251.775 96.443,251.744 96.628 C 251.684 96.990,246.870 99.607,220.200 113.771 C 210.740 118.795,202.370 123.249,201.600 123.668 L 200.200 124.431 193.200 120.683 C 182.684 115.053,154.151 99.696,151.300 98.132 C 149.925 97.378,148.803 96.635,148.806 96.480 C 148.818 95.984,200.178 68.797,200.800 68.958 C 201.130 69.043,212.740 75.228,226.600 82.703 M262.299 115.432 C 262.354 117.174,262.264 128.664,262.099 140.964 L 261.800 163.328 236.000 177.105 C 221.810 184.682,209.884 190.975,209.497 191.088 C 208.831 191.284,208.799 189.959,208.897 165.747 L 209.000 140.200 214.000 137.489 C 233.351 126.998,261.469 112.111,261.800 112.181 C 262.020 112.227,262.245 113.690,262.299 115.432 M115.375 183.957 C 115.169 184.148,97.524 193.609,76.165 204.982 L 37.329 225.659 37.065 242.495 C 36.919 251.755,36.800 270.687,36.800 284.567 L 36.800 309.803 44.700 314.055 C 53.596 318.842,87.316 336.998,91.000 338.984 C 94.563 340.905,103.855 345.938,110.084 349.321 C 113.099 350.959,115.619 352.178,115.684 352.030 C 115.748 351.883,124.710 347.020,135.600 341.225 C 146.490 335.430,159.450 328.529,164.400 325.890 C 180.778 317.158,184.960 314.934,189.000 312.805 C 191.200 311.646,193.208 310.496,193.463 310.249 C 193.804 309.918,193.997 298.815,194.196 268.000 L 194.467 226.200 188.333 222.956 C 181.245 219.206,165.861 210.947,148.400 201.517 C 141.690 197.893,131.880 192.625,126.600 189.811 C 121.320 186.996,116.719 184.450,116.375 184.152 C 116.016 183.842,115.589 183.759,115.375 183.957 M284.357 184.177 C 284.051 184.463,272.010 190.959,257.600 198.613 C 243.190 206.267,230.140 213.198,228.600 214.017 C 227.060 214.835,221.660 217.702,216.600 220.388 C 211.540 223.074,207.191 225.481,206.935 225.736 C 206.591 226.079,206.399 237.092,206.197 268.000 L 205.923 309.800 210.462 312.166 C 212.958 313.468,223.010 318.852,232.800 324.131 C 251.113 334.007,258.025 337.724,274.600 346.607 C 279.880 349.437,284.255 351.883,284.322 352.042 C 284.389 352.201,285.469 351.756,286.722 351.053 C 287.975 350.350,305.666 340.895,326.036 330.042 L 363.071 310.309 363.336 292.889 C 363.481 283.308,363.600 264.380,363.600 250.827 L 363.600 226.185 361.300 224.939 C 360.035 224.254,355.670 221.890,351.600 219.685 C 342.463 214.736,304.984 194.567,294.400 188.903 C 290.110 186.607,286.221 184.488,285.757 184.193 C 285.066 183.753,284.815 183.750,284.357 184.177 M136.456 215.459 C 147.755 221.542,159.160 227.675,161.800 229.088 C 164.440 230.501,166.750 231.803,166.933 231.982 C 167.321 232.360,168.231 231.857,138.385 247.755 L 115.370 260.015 113.185 258.852 C 111.983 258.213,105.240 254.586,98.200 250.793 C 91.160 247.001,82.790 242.494,79.600 240.779 C 61.420 231.003,62.926 232.256,66.886 230.205 C 70.330 228.422,83.935 221.160,102.000 211.462 C 109.150 207.624,115.205 204.465,115.456 204.442 C 115.707 204.419,125.157 209.377,136.456 215.459 M310.879 218.100 C 332.881 229.922,337.810 232.800,336.059 232.800 C 335.871 232.800,333.936 233.766,331.759 234.946 C 327.116 237.463,308.522 247.371,290.279 257.049 L 284.759 259.977 276.879 255.761 C 253.104 243.039,233.201 232.221,233.207 232.024 C 233.210 231.901,235.865 230.404,239.107 228.698 C 242.348 226.992,253.910 220.837,264.800 215.019 C 275.690 209.202,284.776 204.433,284.991 204.421 C 285.206 204.409,296.856 210.565,310.879 218.100 M177.103 273.241 L 177.000 298.882 168.200 303.561 C 163.360 306.134,151.750 312.316,142.400 317.297 C 133.050 322.279,125.085 326.474,124.700 326.620 C 124.038 326.871,124.000 325.503,124.000 301.331 L 124.000 275.776 131.100 271.999 C 135.005 269.921,146.840 263.594,157.400 257.938 C 167.960 252.282,176.736 247.643,176.903 247.627 C 177.070 247.612,177.160 259.138,177.103 273.241 M346.800 273.123 L 346.800 298.646 334.500 305.189 C 327.735 308.788,319.950 312.943,317.200 314.422 C 305.879 320.510,293.987 326.800,293.797 326.800 C 293.685 326.800,293.640 315.267,293.697 301.171 L 293.800 275.541 302.800 270.750 C 307.750 268.115,314.230 264.685,317.200 263.129 C 320.170 261.573,325.030 258.989,328.000 257.387 C 340.587 250.598,346.218 247.623,346.500 247.612 C 346.665 247.605,346.800 259.085,346.800 273.123 " stroke="none" fill="#5c54a4" fill-rule="evenodd"></path><path id="path1" d="M127.200 3.427 C 113.138 3.983,96.052 5.048,92.200 5.607 C 75.664 8.010,72.012 8.615,70.600 9.186 C 70.160 9.364,67.550 10.056,64.800 10.725 C 59.911 11.915,51.907 14.480,51.037 15.136 C 50.797 15.317,49.970 15.705,49.200 15.996 C 34.676 21.497,19.525 36.738,15.792 49.600 C 15.633 50.150,15.348 50.794,15.160 51.031 C 14.519 51.836,11.546 60.943,10.345 65.780 C 8.408 73.578,8.116 75.074,7.221 81.800 C 6.752 85.320,6.196 88.830,5.985 89.600 C 5.184 92.523,3.947 112.267,3.178 134.400 C 2.609 150.766,2.896 266.420,3.535 278.200 C 4.611 298.053,5.288 306.205,6.577 314.800 C 7.966 324.068,8.893 329.427,9.210 330.019 C 9.394 330.362,9.846 332.163,10.215 334.021 C 10.943 337.684,14.734 349.316,15.271 349.533 C 15.452 349.607,15.600 349.971,15.600 350.344 C 15.600 351.295,20.673 361.114,22.600 363.893 C 28.280 372.083,39.450 380.703,49.200 384.421 C 49.970 384.714,50.690 385.070,50.800 385.210 C 50.910 385.351,52.530 385.967,54.400 386.580 C 56.270 387.193,58.250 387.918,58.800 388.193 C 59.350 388.467,62.050 389.190,64.800 389.799 C 67.550 390.408,69.981 391.048,70.202 391.221 C 70.634 391.559,82.123 393.424,86.400 393.851 C 87.830 393.993,89.180 394.247,89.400 394.415 C 90.276 395.084,112.028 396.485,132.600 397.197 C 147.664 397.718,252.736 397.718,267.800 397.197 C 289.223 396.455,310.238 395.077,310.980 394.365 C 311.189 394.164,311.885 394.000,312.526 394.000 C 314.120 394.000,329.673 391.604,330.187 391.279 C 330.414 391.135,332.850 390.443,335.600 389.740 C 340.742 388.427,347.983 386.084,349.400 385.276 C 349.840 385.025,351.302 384.373,352.649 383.826 C 364.647 378.959,375.854 368.705,381.534 357.400 C 386.433 347.647,387.954 343.267,391.627 328.341 C 391.934 327.090,393.682 315.979,394.794 308.200 C 395.255 304.977,396.268 289.813,396.892 276.800 C 397.609 261.843,397.609 138.557,396.892 123.600 C 396.258 110.375,395.250 95.364,394.783 92.200 C 394.589 90.880,394.056 87.232,393.599 84.093 C 391.761 71.465,386.842 52.008,385.183 50.800 C 385.031 50.690,384.774 50.150,384.611 49.600 C 380.747 36.584,365.760 21.511,351.200 15.996 C 350.430 15.705,349.603 15.317,349.362 15.136 C 348.459 14.454,340.420 11.873,335.600 10.717 C 332.850 10.057,330.240 9.370,329.800 9.190 C 328.491 8.654,320.783 7.373,308.200 5.600 C 290.258 3.072,172.044 1.653,127.200 3.427 M207.223 51.536 C 220.029 58.422,235.264 66.624,256.900 78.280 L 278.800 90.078 278.797 132.539 L 278.793 175.000 240.554 195.400 C 195.101 219.649,200.137 217.078,199.211 216.500 C 198.517 216.067,163.232 197.018,136.600 182.699 C 130.220 179.269,124.236 176.043,123.303 175.531 L 121.607 174.600 121.603 132.323 L 121.600 90.046 126.500 87.419 C 148.644 75.545,200.245 48.047,200.423 48.026 C 200.545 48.012,203.605 49.591,207.223 51.536 M191.400 73.923 C 186.560 76.518,177.740 81.222,171.800 84.374 C 165.860 87.527,158.326 91.546,155.058 93.305 L 149.117 96.504 151.658 97.887 C 153.056 98.647,156.810 100.671,160.000 102.384 C 163.190 104.097,166.790 106.038,168.000 106.698 C 169.210 107.358,175.150 110.552,181.200 113.796 C 187.250 117.041,193.907 120.619,195.993 121.748 C 198.080 122.876,199.893 123.850,200.024 123.910 C 200.154 123.971,201.867 123.146,203.830 122.079 C 205.794 121.011,212.080 117.653,217.800 114.616 C 223.520 111.580,230.630 107.797,233.600 106.210 C 236.570 104.623,241.832 101.824,245.294 99.990 C 248.756 98.156,251.546 96.618,251.494 96.574 C 251.411 96.502,233.651 86.921,220.000 79.583 C 217.250 78.105,211.788 75.164,207.862 73.048 C 203.937 70.932,200.607 69.201,200.462 69.202 C 200.318 69.203,196.240 71.327,191.400 73.923 M255.800 115.642 C 252.500 117.406,245.210 121.293,239.600 124.280 C 233.990 127.267,226.790 131.102,223.600 132.802 C 220.410 134.501,215.865 136.916,213.500 138.168 L 209.200 140.444 209.200 165.655 C 209.200 179.521,209.344 190.807,209.521 190.733 C 209.918 190.568,237.547 175.899,246.000 171.365 C 249.410 169.536,254.360 166.895,257.000 165.495 L 261.800 162.951 261.921 139.464 C 261.988 126.547,261.988 115.180,261.921 114.206 L 261.800 112.435 255.800 115.642 M133.026 192.837 C 142.471 197.918,157.130 205.814,165.600 210.385 C 174.070 214.956,184.010 220.294,187.689 222.248 L 194.377 225.800 194.389 268.060 L 194.400 310.320 165.300 325.804 C 137.770 340.453,128.634 345.327,119.441 350.271 C 114.790 352.771,115.302 352.695,112.906 351.254 C 111.858 350.623,106.680 347.808,101.400 344.996 C 96.120 342.185,88.920 338.313,85.400 336.392 C 81.880 334.471,71.530 328.895,62.400 324.001 C 53.270 319.107,43.774 314.003,41.298 312.658 L 36.796 310.214 36.898 267.814 L 37.000 225.414 41.200 223.173 C 49.954 218.502,65.551 210.200,80.600 202.200 C 108.064 187.601,114.192 184.310,114.580 183.951 C 115.270 183.313,115.724 183.532,133.026 192.837 M286.220 183.959 C 286.537 184.259,343.568 215.027,358.902 223.171 L 363.604 225.668 363.502 268.117 L 363.400 310.565 353.000 316.099 C 347.280 319.143,340.530 322.730,338.000 324.070 C 335.470 325.410,330.610 327.997,327.200 329.818 C 323.790 331.639,313.170 337.303,303.600 342.405 C 294.030 347.506,285.984 351.857,285.719 352.073 C 284.945 352.706,286.794 353.635,259.768 339.028 C 256.890 337.473,243.623 330.350,230.285 323.200 L 206.034 310.200 206.117 267.874 L 206.200 225.549 239.200 207.950 C 257.350 198.271,274.810 188.987,278.000 187.320 C 281.190 185.652,283.971 184.133,284.180 183.944 C 284.675 183.496,285.738 183.504,286.220 183.959 M90.400 218.079 C 76.870 225.336,65.485 231.368,65.100 231.484 C 63.980 231.819,64.253 232.114,67.107 233.650 C 85.255 243.418,102.949 252.913,106.000 254.521 C 108.090 255.623,111.013 257.223,112.496 258.078 L 115.193 259.631 140.542 246.116 C 154.484 238.682,165.926 232.420,165.968 232.200 C 166.011 231.980,160.590 228.861,153.923 225.268 C 147.255 221.676,135.976 215.601,128.857 211.768 C 121.738 207.936,115.708 204.819,115.457 204.842 C 115.206 204.865,103.930 210.822,90.400 218.079 M259.316 218.328 C 245.409 225.737,234.024 231.907,234.016 232.038 C 234.007 232.168,237.915 234.374,242.700 236.939 C 247.485 239.504,252.930 242.427,254.800 243.436 C 256.670 244.445,259.550 245.995,261.200 246.880 C 262.850 247.766,268.837 250.995,274.504 254.056 L 284.807 259.621 292.504 255.471 C 296.737 253.189,308.262 247.036,318.116 241.797 C 327.970 236.559,335.890 232.145,335.716 231.988 C 335.542 231.832,328.920 228.230,321.000 223.983 C 313.080 219.737,301.831 213.683,296.001 210.531 C 290.172 207.379,285.222 204.812,285.001 204.828 C 284.781 204.843,273.222 210.918,259.316 218.328 M172.600 250.264 C 170.400 251.474,165.450 254.132,161.600 256.171 C 145.447 264.728,133.514 271.086,129.200 273.435 L 124.600 275.939 124.497 301.195 C 124.440 315.086,124.530 326.374,124.697 326.280 C 124.864 326.186,136.610 319.936,150.800 312.391 C 164.990 304.847,176.630 298.657,176.666 298.637 C 176.949 298.477,177.242 248.007,176.959 248.032 C 176.762 248.050,174.800 249.055,172.600 250.264 M337.800 252.553 C 333.180 255.029,323.370 260.261,316.000 264.180 C 298.861 273.293,296.917 274.330,295.100 275.326 L 293.600 276.147 293.600 301.274 C 293.600 315.093,293.719 326.400,293.864 326.400 C 294.009 326.400,296.574 325.074,299.564 323.453 C 302.554 321.832,314.090 315.683,325.200 309.789 C 336.310 303.895,345.626 298.868,345.903 298.619 C 346.299 298.262,346.384 292.833,346.303 273.108 L 346.200 248.051 337.800 252.553 " stroke="none" fill="#cbf3fb" fill-rule="evenodd"></path><path id="path2" d="M198.300 49.029 C 196.805 49.840,196.896 50.178,198.400 49.400 C 199.060 49.059,199.600 48.694,199.600 48.590 C 199.600 48.332,199.557 48.347,198.300 49.029 M261.693 160.800 C 261.693 161.570,261.775 161.885,261.876 161.500 C 261.976 161.115,261.976 160.485,261.876 160.100 C 261.775 159.715,261.693 160.030,261.693 160.800 M271.500 190.629 C 270.005 191.440,270.096 191.778,271.600 191.000 C 272.260 190.659,272.800 190.294,272.800 190.190 C 272.800 189.932,272.757 189.947,271.500 190.629 M239.500 228.629 C 238.005 229.440,238.096 229.778,239.600 229.000 C 240.260 228.659,240.800 228.294,240.800 228.190 C 240.800 227.932,240.757 227.947,239.500 228.629 M346.585 266.800 C 346.585 277.250,346.636 281.525,346.700 276.300 C 346.763 271.075,346.763 262.525,346.700 257.300 C 346.636 252.075,346.585 256.350,346.585 266.800 M124.267 275.867 C 123.843 276.290,123.947 326.320,124.372 326.583 C 124.577 326.709,124.875 326.602,125.034 326.345 C 125.216 326.050,125.150 325.984,124.856 326.165 C 124.500 326.385,124.414 320.353,124.494 301.027 C 124.552 287.042,124.585 275.600,124.567 275.600 C 124.548 275.600,124.413 275.720,124.267 275.867 M176.976 287.400 C 176.976 293.560,177.032 296.024,177.099 292.876 C 177.167 289.727,177.167 284.687,177.099 281.676 C 177.031 278.664,176.976 281.240,176.976 287.400 " stroke="none" fill="#a0adda" fill-rule="evenodd"></path><path id="path3" d="M150.800 97.779 C 150.800 97.889,151.340 98.259,152.000 98.600 C 152.660 98.941,153.200 99.131,153.200 99.021 C 153.200 98.911,152.660 98.541,152.000 98.200 C 151.340 97.859,150.800 97.669,150.800 97.779 M248.700 98.229 C 247.205 99.040,247.296 99.378,248.800 98.600 C 249.460 98.259,250.000 97.894,250.000 97.790 C 250.000 97.532,249.957 97.547,248.700 98.229 M237.100 104.427 C 236.275 104.863,235.600 105.308,235.600 105.418 C 235.600 105.527,236.320 105.249,237.200 104.800 C 238.080 104.351,238.800 103.897,238.800 103.792 C 238.800 103.530,238.797 103.531,237.100 104.427 M230.300 108.027 C 229.475 108.463,228.800 108.908,228.800 109.018 C 228.800 109.127,229.520 108.849,230.400 108.400 C 231.280 107.951,232.000 107.497,232.000 107.392 C 232.000 107.130,231.997 107.131,230.300 108.027 M224.700 111.029 C 223.205 111.840,223.296 112.178,224.800 111.400 C 225.460 111.059,226.000 110.694,226.000 110.590 C 226.000 110.332,225.957 110.347,224.700 111.029 M177.600 112.179 C 177.600 112.289,178.140 112.659,178.800 113.000 C 179.460 113.341,180.000 113.531,180.000 113.421 C 180.000 113.311,179.460 112.941,178.800 112.600 C 178.140 112.259,177.600 112.069,177.600 112.179 M218.700 114.229 C 217.205 115.040,217.296 115.378,218.800 114.600 C 219.460 114.259,220.000 113.894,220.000 113.790 C 220.000 113.532,219.957 113.547,218.700 114.229 M255.900 115.029 C 254.405 115.840,254.496 116.178,256.000 115.400 C 256.660 115.059,257.200 114.694,257.200 114.590 C 257.200 114.332,257.157 114.347,255.900 115.029 M187.200 117.384 C 187.200 117.494,187.920 117.951,188.800 118.400 C 189.680 118.849,190.400 119.126,190.400 119.016 C 190.400 118.906,189.680 118.449,188.800 118.000 C 187.920 117.551,187.200 117.274,187.200 117.384 M211.900 117.829 C 210.405 118.640,210.496 118.978,212.000 118.200 C 212.660 117.859,213.200 117.494,213.200 117.390 C 213.200 117.132,213.157 117.147,211.900 117.829 M250.700 117.829 C 249.205 118.640,249.296 118.978,250.800 118.200 C 251.460 117.859,252.000 117.494,252.000 117.390 C 252.000 117.132,251.957 117.147,250.700 117.829 M206.700 120.629 C 205.205 121.440,205.296 121.778,206.800 121.000 C 207.460 120.659,208.000 120.294,208.000 120.190 C 208.000 119.932,207.957 119.947,206.700 120.629 M244.700 121.029 C 243.205 121.840,243.296 122.178,244.800 121.400 C 245.460 121.059,246.000 120.694,246.000 120.590 C 246.000 120.332,245.957 120.347,244.700 121.029 M237.900 124.629 C 236.405 125.440,236.496 125.778,238.000 125.000 C 238.660 124.659,239.200 124.294,239.200 124.190 C 239.200 123.932,239.157 123.947,237.900 124.629 M231.900 127.829 C 230.405 128.640,230.496 128.978,232.000 128.200 C 232.660 127.859,233.200 127.494,233.200 127.390 C 233.200 127.132,233.157 127.147,231.900 127.829 M226.300 130.827 C 225.475 131.263,224.800 131.708,224.800 131.818 C 224.800 131.927,225.520 131.649,226.400 131.200 C 227.280 130.751,228.000 130.297,228.000 130.192 C 228.000 129.930,227.997 129.931,226.300 130.827 M219.100 134.629 C 217.605 135.440,217.696 135.778,219.200 135.000 C 219.860 134.659,220.400 134.294,220.400 134.190 C 220.400 133.932,220.357 133.947,219.100 134.629 M213.900 137.429 C 212.405 138.240,212.496 138.578,214.000 137.800 C 214.660 137.459,215.200 137.094,215.200 136.990 C 215.200 136.732,215.157 136.747,213.900 137.429 M66.800 233.779 C 66.800 233.889,67.340 234.259,68.000 234.600 C 68.660 234.941,69.200 235.131,69.200 235.021 C 69.200 234.911,68.660 234.541,68.000 234.200 C 67.340 233.859,66.800 233.669,66.800 233.779 M163.100 234.229 C 161.605 235.040,161.696 235.378,163.200 234.600 C 163.860 234.259,164.400 233.894,164.400 233.790 C 164.400 233.532,164.357 233.547,163.100 234.229 M155.500 238.229 C 154.005 239.040,154.096 239.378,155.600 238.600 C 156.260 238.259,156.800 237.894,156.800 237.790 C 156.800 237.532,156.757 237.547,155.500 238.229 M244.400 238.179 C 244.400 238.289,244.940 238.659,245.600 239.000 C 246.260 239.341,246.800 239.531,246.800 239.421 C 246.800 239.311,246.260 238.941,245.600 238.600 C 244.940 238.259,244.400 238.069,244.400 238.179 M76.400 238.987 C 76.400 239.097,77.300 239.643,78.400 240.200 C 79.500 240.757,80.400 241.123,80.400 241.013 C 80.400 240.903,79.500 240.357,78.400 239.800 C 77.300 239.243,76.400 238.877,76.400 238.987 M144.300 244.229 C 142.805 245.040,142.896 245.378,144.400 244.600 C 145.060 244.259,145.600 243.894,145.600 243.790 C 145.600 243.532,145.557 243.547,144.300 244.229 M254.800 243.779 C 254.800 243.889,255.340 244.259,256.000 244.600 C 256.660 244.941,257.200 245.131,257.200 245.021 C 257.200 244.911,256.660 244.541,256.000 244.200 C 255.340 243.859,254.800 243.669,254.800 243.779 M86.800 244.579 C 86.800 244.689,87.340 245.059,88.000 245.400 C 88.660 245.741,89.200 245.931,89.200 245.821 C 89.200 245.711,88.660 245.341,88.000 245.000 C 87.340 244.659,86.800 244.469,86.800 244.579 M137.900 247.627 C 137.075 248.063,136.400 248.508,136.400 248.618 C 136.400 248.727,137.120 248.449,138.000 248.000 C 138.880 247.551,139.600 247.097,139.600 246.992 C 139.600 246.730,139.597 246.731,137.900 247.627 M92.800 247.779 C 92.800 247.889,93.340 248.259,94.000 248.600 C 94.660 248.941,95.200 249.131,95.200 249.021 C 95.200 248.911,94.660 248.541,94.000 248.200 C 93.340 247.859,92.800 247.669,92.800 247.779 M175.500 248.229 C 173.949 249.070,174.125 249.361,175.700 248.559 C 177.208 247.793,177.475 247.594,176.967 247.616 C 176.765 247.625,176.105 247.901,175.500 248.229 M304.300 249.226 C 303.035 249.879,302.000 250.503,302.000 250.612 C 302.000 250.722,303.080 250.266,304.400 249.600 C 305.720 248.934,306.800 248.301,306.800 248.194 C 306.800 247.928,306.874 247.897,304.300 249.226 M265.200 249.379 C 265.200 249.489,265.740 249.859,266.400 250.200 C 267.060 250.541,267.600 250.731,267.600 250.621 C 267.600 250.511,267.060 250.141,266.400 249.800 C 265.740 249.459,265.200 249.269,265.200 249.379 M131.900 250.827 C 131.075 251.263,130.400 251.708,130.400 251.818 C 130.400 251.927,131.120 251.649,132.000 251.200 C 132.880 250.751,133.600 250.297,133.600 250.192 C 133.600 249.930,133.597 249.931,131.900 250.827 M169.900 251.227 C 169.075 251.663,168.400 252.108,168.400 252.218 C 168.400 252.327,169.120 252.049,170.000 251.600 C 170.880 251.151,171.600 250.697,171.600 250.592 C 171.600 250.330,171.597 250.331,169.900 251.227 M337.500 252.229 C 336.005 253.040,336.096 253.378,337.600 252.600 C 338.260 252.259,338.800 251.894,338.800 251.790 C 338.800 251.532,338.757 251.547,337.500 252.229 M270.400 252.179 C 270.400 252.289,270.940 252.659,271.600 253.000 C 272.260 253.341,272.800 253.531,272.800 253.421 C 272.800 253.311,272.260 252.941,271.600 252.600 C 270.940 252.259,270.400 252.069,270.400 252.179 M102.400 252.984 C 102.400 253.094,103.120 253.551,104.000 254.000 C 104.880 254.449,105.600 254.726,105.600 254.616 C 105.600 254.506,104.880 254.049,104.000 253.600 C 103.120 253.151,102.400 252.874,102.400 252.984 M125.900 254.027 C 125.075 254.463,124.400 254.908,124.400 255.018 C 124.400 255.127,125.120 254.849,126.000 254.400 C 126.880 253.951,127.600 253.497,127.600 253.392 C 127.600 253.130,127.597 253.131,125.900 254.027 M275.600 254.979 C 275.600 255.089,276.140 255.459,276.800 255.800 C 277.460 256.141,278.000 256.331,278.000 256.221 C 278.000 256.111,277.460 255.741,276.800 255.400 C 276.140 255.059,275.600 254.869,275.600 254.979 M292.700 255.429 C 291.205 256.240,291.296 256.578,292.800 255.800 C 293.460 255.459,294.000 255.094,294.000 254.990 C 294.000 254.732,293.957 254.747,292.700 255.429 M107.600 255.779 C 107.600 255.889,108.140 256.259,108.800 256.600 C 109.460 256.941,110.000 257.131,110.000 257.021 C 110.000 256.911,109.460 256.541,108.800 256.200 C 108.140 255.859,107.600 255.669,107.600 255.779 M329.900 256.229 C 328.405 257.040,328.496 257.378,330.000 256.600 C 330.660 256.259,331.200 255.894,331.200 255.790 C 331.200 255.532,331.157 255.547,329.900 256.229 M119.900 257.227 C 119.075 257.663,118.400 258.108,118.400 258.218 C 118.400 258.327,119.120 258.049,120.000 257.600 C 120.880 257.151,121.600 256.697,121.600 256.592 C 121.600 256.330,121.597 256.331,119.900 257.227 M151.500 261.029 C 150.005 261.840,150.096 262.178,151.600 261.400 C 152.260 261.059,152.800 260.694,152.800 260.590 C 152.800 260.332,152.757 260.347,151.500 261.029 M311.900 265.829 C 310.405 266.640,310.496 266.978,312.000 266.200 C 312.660 265.859,313.200 265.494,313.200 265.390 C 313.200 265.132,313.157 265.147,311.900 265.829 M305.100 269.429 C 303.605 270.240,303.696 270.578,305.200 269.800 C 305.860 269.459,306.400 269.094,306.400 268.990 C 306.400 268.732,306.357 268.747,305.100 269.429 M132.700 271.029 C 131.205 271.840,131.296 272.178,132.800 271.400 C 133.460 271.059,134.000 270.694,134.000 270.590 C 134.000 270.332,133.957 270.347,132.700 271.029 M299.500 272.427 C 298.675 272.863,298.000 273.308,298.000 273.418 C 298.000 273.527,298.720 273.249,299.600 272.800 C 300.480 272.351,301.200 271.897,301.200 271.792 C 301.200 271.530,301.197 271.531,299.500 272.427 " stroke="none" fill="#a383d9" fill-rule="evenodd"></path><path id="path4" d="M121.776 101.000 C 121.776 107.160,121.832 109.624,121.899 106.476 C 121.967 103.327,121.967 98.287,121.899 95.276 C 121.831 92.264,121.776 94.840,121.776 101.000 M262.173 122.000 C 262.173 127.390,262.230 129.595,262.299 126.900 C 262.368 124.205,262.368 119.795,262.299 117.100 C 262.230 114.405,262.173 116.610,262.173 122.000 M208.988 165.800 C 208.988 179.880,209.039 185.582,209.100 178.471 C 209.161 171.360,209.161 159.840,209.100 152.871 C 209.038 145.902,208.988 151.720,208.988 165.800 M143.600 186.179 C 143.600 186.289,144.140 186.659,144.800 187.000 C 145.460 187.341,146.000 187.531,146.000 187.421 C 146.000 187.311,145.460 186.941,144.800 186.600 C 144.140 186.259,143.600 186.069,143.600 186.179 M201.700 215.596 C 200.985 216.032,200.400 216.475,200.400 216.581 C 200.400 216.686,201.030 216.401,201.800 215.947 C 202.570 215.493,203.200 215.049,203.200 214.960 C 203.200 214.705,203.074 214.758,201.700 215.596 M37.500 225.232 C 36.856 225.607,36.807 226.541,36.893 236.920 L 36.987 248.200 37.100 237.039 C 37.202 227.000,37.283 225.826,37.906 225.352 C 38.730 224.727,38.489 224.656,37.500 225.232 M206.445 225.745 C 206.118 226.139,206.022 231.890,206.100 246.445 L 206.208 266.600 206.304 246.380 C 206.376 231.297,206.522 226.038,206.880 225.680 C 207.144 225.416,207.256 225.200,207.129 225.200 C 207.002 225.200,206.694 225.445,206.445 225.745 M65.900 230.629 C 64.405 231.440,64.496 231.778,66.000 231.000 C 66.660 230.659,67.200 230.294,67.200 230.190 C 67.200 229.932,67.157 229.947,65.900 230.629 M194.096 289.020 C 194.036 302.115,193.852 310.019,193.601 310.321 C 193.380 310.589,193.470 310.573,193.805 310.283 C 194.330 309.831,194.393 307.083,194.300 288.982 L 194.193 268.200 194.096 289.020 M346.564 292.200 C 346.563 295.940,346.623 297.524,346.697 295.720 C 346.771 293.915,346.772 290.855,346.698 288.920 C 346.625 286.984,346.564 288.460,346.564 292.200 M363.377 298.800 C 363.377 305.290,363.432 307.945,363.499 304.700 C 363.566 301.455,363.566 296.145,363.499 292.900 C 363.432 289.655,363.377 292.310,363.377 298.800 M154.300 310.629 C 152.805 311.440,152.896 311.778,154.400 311.000 C 155.060 310.659,155.600 310.294,155.600 310.190 C 155.600 309.932,155.557 309.947,154.300 310.629 M148.300 313.829 C 146.805 314.640,146.896 314.978,148.400 314.200 C 149.060 313.859,149.600 313.494,149.600 313.390 C 149.600 313.132,149.557 313.147,148.300 313.829 M151.500 332.629 C 150.005 333.440,150.096 333.778,151.600 333.000 C 152.260 332.659,152.800 332.294,152.800 332.190 C 152.800 331.932,152.757 331.947,151.500 332.629 " stroke="none" fill="#8c9ccd" fill-rule="evenodd"></path></g></svg>